<?xml version="1.0" encoding="UTF-8"?>
<svg id="Layer_1" data-name="Layer 1" xmlns="http://www.w3.org/2000/svg" viewBox="0 0 1237 106">
  <defs>
    <style>
      .cls-1 {
        fill: #010101;
      }
    </style>
  </defs>
  <polygon class="cls-1" points="116.62 4.78 108.57 4.78 87.65 61.61 83.5 75.83 79.45 61.61 58.53 4.78 49.63 4.78 42.28 4.78 28.71 4.78 28.71 100.91 51.32 100.91 50.08 30.25 57.26 53.69 74.93 100.91 91.32 100.91 108.86 54.12 116.18 30.24 114.93 100.91 137.55 100.91 137.55 4.78 123.98 4.78 116.62 4.78"/>
  <path class="cls-1" d="M253.74,8.61c-7.15-4.05-15.69-6.09-25.58-6.09-9.99,0-18.57,2.03-25.73,6.09-7.17,4.05-12.7,9.86-16.6,17.46-3.92,7.58-5.87,16.55-5.87,26.92,0,10.37,1.96,19.29,5.87,26.78,3.9,7.49,9.44,13.27,16.6,17.32,7.15,4.05,15.74,6.07,25.73,6.07,9.89,0,18.42-2.02,25.58-6.07,7.17-4.05,12.7-9.83,16.62-17.32,3.9-7.49,5.86-16.42,5.86-26.78,0-10.37-1.96-19.34-5.86-26.92-3.92-7.59-9.45-13.4-16.62-17.46ZM250.06,69.88c-1.97,4.76-4.82,8.41-8.55,10.96-3.73,2.54-8.17,3.82-13.35,3.82-5.28,0-9.78-1.28-13.5-3.82-3.73-2.55-6.58-6.2-8.55-10.96-1.98-4.76-2.97-10.39-2.97-16.89,0-6.59.99-12.27,2.97-17.03,1.97-4.76,4.82-8.43,8.55-11.03,3.73-2.59,8.22-3.88,13.5-3.88,5.18,0,9.63,1.29,13.35,3.88,3.73,2.6,6.58,6.28,8.55,11.03,1.98,4.76,2.97,10.44,2.97,17.03,0,6.5-.99,12.14-2.97,16.89Z"/>
  <polygon class="cls-1" points="359.75 67.84 356.85 79.11 353.95 67.84 331.62 4.78 307.59 4.78 342.93 100.91 369.64 100.91 404.98 4.78 382.08 4.78 359.75 67.84"/>
  <rect class="cls-1" x="442.87" y="4.78" width="22.62" height="96.12"/>
  <polygon class="cls-1" points="533.61 4.78 510.99 4.78 510.99 100.91 527.54 100.91 533.61 100.91 575.87 100.91 575.87 82.53 533.61 82.53 533.61 4.78"/>
  <rect class="cls-1" x="616.3" y="4.78" width="22.62" height="96.12"/>
  <polygon class="cls-1" points="700.97 4.78 684.43 4.78 684.43 100.91 700.97 100.91 707.04 100.91 753.41 100.91 753.41 82.96 707.04 82.96 707.04 60.48 747.88 60.48 747.88 42.95 707.04 42.95 707.04 22.74 753.41 22.74 753.41 4.78 707.04 4.78 700.97 4.78"/>
  <polygon class="cls-1" points="857.32 70.53 849.94 55.25 819.55 4.78 816.58 4.78 802.58 4.78 795.67 4.78 795.67 100.91 818.29 100.91 817.12 35.09 824.49 50.44 854.89 100.91 857.85 100.91 871.98 100.91 878.78 100.91 878.78 4.78 856.17 4.78 857.32 70.53"/>
  <path class="cls-1" d="M954.91,24.93c3.44-2.59,7.56-3.88,12.35-3.88,4.72,0,8.76,1.24,12.1,3.74,3.34,2.5,5.67,6.1,7,10.82h23.75c-1.33-7.35-4.04-13.48-8.13-18.37-4.09-4.91-9.09-8.58-14.99-11.03-5.9-2.45-12.27-3.68-19.15-3.68-9.61,0-17.9,2.03-24.87,6.09-6.98,4.05-12.35,9.86-16.11,17.46-3.77,7.58-5.65,16.55-5.65,26.92,0,10.37,1.86,19.29,5.57,26.78,3.71,7.49,9.04,13.27,15.96,17.32,6.93,4.05,15.21,6.07,24.82,6.07,6.88,0,13.23-1.22,19.08-3.68,5.85-2.45,10.79-6.07,14.83-10.88,4.07-4.81,6.93-10.74,8.63-17.81h-24.05c-1.31,4.52-3.64,7.97-6.98,10.32-3.36,2.36-7.28,3.54-11.82,3.54-4.89,0-9.04-1.28-12.42-3.82-3.39-2.55-6-6.17-7.78-10.88-1.78-4.72-2.69-10.37-2.69-16.97,0-6.59.9-12.27,2.69-17.03,1.78-4.76,4.42-8.43,7.86-11.03Z"/>
  <rect class="cls-1" x="1051.07" y="4.78" width="22.62" height="96.12"/>
  <path class="cls-1" d="M1184.94,100.91h24.17s-35.19-96.12-35.19-96.12h-27.13s-35.07,96.12-35.07,96.12h22.77s6.35-17.95,6.35-17.95h37.74s6.36,17.95,6.36,17.95ZM1146.99,65.56l9.8-27.7,2.96-10.85,2.84,10.85,9.82,27.7h-25.42Z"/>
</svg>