<?xml version="1.0" encoding="UTF-8"?>
<svg id="Layer_1" data-name="Layer 1" xmlns="http://www.w3.org/2000/svg" viewBox="0 0 566.93 566.93">
  <path d="M433.06,336.18c1.07-3.18,3.46-10.54,1.63-19.06-2.18-10.16-7.87-10.36-10.62-20.15-2.28-8.11,1.14-9.7,1.36-24.77.17-11.44.28-19.03-3.81-25.86-3.39-5.67-6.95-6.25-25.86-16.06-25.52-13.25-29.06-17.38-31.31-21.24-5.36-9.2-5.09-19.77-4.9-22.87.57-9.58,4.11-11.8,4.36-22.32.15-6.21.31-12.99-3.54-19.06-6.78-10.68-18.53-7.39-24.23-18.24-2.84-5.4-2.56-11.23-2.45-13.61.4-8.52,4.17-10.03,4.63-18.24.08-1.48.59-13.04-5.99-17.42-2.83-1.88-3.93-.42-11.43-2.18-7.83-1.84-8.97-3.99-13.34-4.08-6.14-.13-11.7,3.29-13.64,6.37-8.14,12.96-9.22,22.07-17.38,36.85-5.54,10.03-9.54,9.81-21.55,22.25-25.03,25.91-18.88,38.48-41.71,61.87-7.96,8.15-5.15,2.98-34.06,26.42-27.8,22.53-33.76,30.04-38.24,38.24-3.12,5.72-14.97,27.43-6.26,41.71,2.58,4.23,7.05,7.23,15.99,13.21,12.36,8.28,14.67,6.81,20.86,11.82,8.63,6.99,8.51,13.39,18.08,32.67,2.09,4.22,7.65,15.33,15.29,26.42,11.85,17.18,22.05,31.96,38.93,36.15,7.52,1.87,17.77,1.98,27.81,2.09,9.82.11,10.3-.56,15.29,0,15.11,1.7,26.18,9.56,29.2,11.82,13.48,10.11,12.67,18.47,25.03,22.94,2.33.84,8.13,2.86,15.29,1.39,1.11-.23,11.8-2.56,17.38-11.82,3.51-5.83,1.61-8.77,4.75-10.95,5.03-3.49,10.5,3.7,21.51,2.18,1.01-.14,5.86-2.18,15.52-6.26,9.82-4.15,10.64-4.61,11.71-5.72,5.92-6.16,4.22-16.75,3.54-20.96-2.1-13.06-8.15-13.65-11.43-27.22-1.15-4.76-3.39-14.06,0-23.96,3.58-10.43,9.67-10.61,13.61-22.32ZM411.7,341.59c-9.18,12.47-13.5,30.99-10.94,44.15,2.48,12.73,10.19,14.27,13.28,32.43,1.09,6.37,1.94,11.78-1.17,14.85-4.69,4.62-12.64-1.76-28.13,1.17-4.23.8-10.07,1.91-15.63,6.25-7.43,5.81-6.59,11.34-10.94,12.5-6.74,1.8-11.55-10.74-27.74-22.27-3.74-2.66-13.59-9.55-26.96-12.5-17.29-3.82-21.48,3.12-36.72,0-14.65-3-24.24-12.17-33.99-21.49-2.62-2.5-7.1-7.02-26.18-35.16-21.46-31.66-22.12-35.28-30.47-40.24-10.72-6.37-19.08-6.02-23.44-14.46-3.53-6.83-1.69-14.12.39-21.88,7.7-28.76,30.78-45.34,32.43-46.49,9.47-6.61,12.62-5.74,24.61-14.85,6.56-4.98,13.1-9.94,19.14-17.97,10.08-13.39,7.25-19.97,16.8-35.16,2.49-3.96,2.85-3.78,19.14-21.49,18.67-20.3,28.01-30.44,30.47-34.77,10.25-18.01,10.8-34.43,17.97-34.77,2.26-.11,4.38,1.41,5.47,2.73,1.03,1.25,2.81,4.36-1.17,18.36-2.93,10.29-4.67,11.35-3.91,14.85,1.1,5.05,5.46,6.19,12.89,12.11,5.79,4.62,16.52,13.17,18.75,24.22,1.42,7.04-2.08,7.74-3.91,21.1-1.18,8.67-2.75,20.13,2.34,31.25,5.73,12.53,17.21,18.75,22.27,21.49,13.35,7.23,17.95,3.13,26.96,10.16,12.2,9.52,14.3,25.25,14.46,26.57,1.61,13.55-5.73,15.7-3.13,29.3,1.17,6.1,4.31,14.34,8.2,21.49,3.36,6.15,5.69,8.6,5.86,13.28.24,6.65-4.11,11.27-7.03,15.24Z"/>
</svg>