<?xml version="1.0" encoding="UTF-8"?>
<svg id="Layer_1" data-name="Layer 1" xmlns="http://www.w3.org/2000/svg" viewBox="0 0 566.93 566.93">
  <path d="M39.13,298.45v-40.43h8.79l.71,40.43h-9.51ZM65.46,298.45h-6.89l-7.43-19.86-6.3-20.57h6.83l8.79,23.9,2.21,7.73h-1.02l2.26-7.73,8.79-23.9h6.49l-6.37,20.74-7.37,19.68ZM75.38,298.45l.73-40.43h8.79v40.43h-9.52Z"/>
  <path d="M122.99,299.39c-4.19,0-7.81-.84-10.81-2.55-3.02-1.7-5.34-4.14-6.98-7.28-1.65-3.15-2.47-6.89-2.47-11.26s.81-8.13,2.47-11.33c1.64-3.19,3.96-5.63,6.98-7.34,3-1.71,6.62-2.56,10.81-2.56s7.75.86,10.77,2.56c3,1.71,5.34,4.15,6.98,7.34,1.64,3.19,2.47,6.97,2.47,11.33s-.83,8.11-2.47,11.26c-1.64,3.15-3.98,5.59-6.98,7.28-3.02,1.71-6.6,2.55-10.77,2.55ZM122.99,291.61c2.19,0,4.06-.54,5.63-1.61,1.55-1.07,2.76-2.6,3.58-4.6.84-2,1.25-4.37,1.25-7.11s-.41-5.16-1.25-7.16c-.83-2-2.03-3.55-3.58-4.64-1.57-1.09-3.44-1.63-5.63-1.63s-4.11.54-5.67,1.63c-1.57,1.09-2.76,2.63-3.58,4.64-.84,2-1.26,4.39-1.26,7.16s.42,5.11,1.26,7.11c.83,2,2.02,3.53,3.58,4.6,1.57,1.07,3.47,1.61,5.67,1.61Z"/>
  <path d="M166.52,258.02l9.39,26.51,1.61,6.24h-.77l1.6-6.24,9.39-26.51h9.64l-14.86,40.43h-11.23l-14.86-40.43h10.1Z"/>
  <path d="M213.31,298.45v-40.43h9.51v40.43h-9.51Z"/>
  <polygon points="251.47 290.71 251.47 258.02 241.96 258.02 241.96 298.45 248.91 298.45 251.47 298.45 269.24 298.45 269.24 290.71 251.47 290.71"/>
  <path d="M286.24,298.45v-40.43h9.51v40.43h-9.51Z"/>
  <polygon points="343.89 265.57 343.89 258.02 324.39 258.02 321.83 258.02 314.88 258.02 314.88 298.45 321.83 298.45 324.39 298.45 343.89 298.45 343.89 290.9 324.39 290.9 324.39 281.44 341.57 281.44 341.57 274.07 324.39 274.07 324.39 265.57 343.89 265.57"/>
  <polygon points="387.09 258.02 387.58 285.66 384.48 279.24 371.69 258.02 370.45 258.02 364.57 258.02 361.65 258.02 361.65 298.45 371.16 298.45 370.67 270.75 373.77 277.22 386.55 298.45 387.8 298.45 393.75 298.45 396.6 298.45 396.6 258.02 387.09 258.02"/>
  <path d="M451.83,270.98h-9.98c-.55-1.98-1.54-3.5-2.95-4.54-1.41-1.05-3.09-1.57-5.08-1.57s-3.76.54-5.2,1.63c-1.45,1.09-2.55,2.63-3.31,4.64-.75,2-1.13,4.39-1.13,7.16s.38,5.15,1.13,7.14c.75,1.97,1.84,3.5,3.28,4.57,1.42,1.07,3.16,1.61,5.22,1.61,1.9,0,3.56-.49,4.96-1.49,1.41-.99,2.39-2.44,2.95-4.34h10.1c-.71,2.97-1.92,5.47-3.63,7.49-1.7,2.03-3.79,3.56-6.24,4.59-2.45,1.03-5.12,1.54-8.02,1.54-4.03,0-7.52-.84-10.43-2.55-2.9-1.7-5.15-4.14-6.7-7.28-1.57-3.15-2.35-6.89-2.35-11.26s.78-8.13,2.38-11.33c1.58-3.19,3.83-5.63,6.78-7.34,2.93-1.71,6.41-2.56,10.45-2.56,2.9,0,5.59.52,8.05,1.55,2.48,1.03,4.59,2.58,6.31,4.64,1.71,2.06,2.86,4.64,3.41,7.73Z"/>
  <path d="M469.07,298.45v-40.43h9.51v40.43h-9.51Z"/>
  <path d="M525.34,298.45h10.17l-14.8-40.43h-11.41l-14.74,40.43h9.56l2.67-7.55h15.87l2.67,7.55ZM509.39,283.59l4.13-11.66,1.25-4.56,1.19,4.56,4.13,11.66h-10.69Z"/>
</svg>